<?xml version="1.0" encoding="UTF-8"?><svg xmlns="http://www.w3.org/2000/svg" xmlns:xlink="http://www.w3.org/1999/xlink" contentScriptType="text/ecmascript" width="16" zoomAndPan="magnify" contentStyleType="text/css" viewBox="0 0 375 374.999991" height="16" preserveAspectRatio="xMidYMid meet" version="1.0"><defs><clipPath id="clip-0"><path d="M 1.164062 0 L 374.664062 0 L 374.664062 373.5 L 1.164062 373.5 Z M 1.164062 0 " clip-rule="nonzero"/></clipPath></defs><g clip-path="url(#clip-0-1)"><path fill="rgb(100%, 100%, 100%)" d="M 187.75 -0.109375 C 84.640625 -0.109375 1.054688 83.476562 1.054688 186.589844 C 1.054688 289.699219 84.640625 373.285156 187.75 373.285156 C 290.863281 373.285156 374.449219 289.699219 374.449219 186.589844 C 374.449219 83.476562 290.863281 -0.109375 187.75 -0.109375 Z M 187.75 73.507812 C 218.902344 73.507812 244.164062 98.765625 244.164062 129.925781 C 244.164062 161.078125 218.90625 186.339844 187.75 186.339844 C 156.589844 186.339844 131.332031 161.082031 131.332031 129.925781 C 131.332031 98.765625 156.589844 73.507812 187.75 73.507812 Z M 188.285156 287.40625 L 105.429688 287.40625 C 105.429688 231.804688 135.679688 212.015625 155.523438 194.25 C 165.132812 199.414062 176.097656 202.378906 187.75 202.464844 C 199.394531 202.378906 210.359375 199.414062 219.96875 194.25 C 239.8125 212.015625 270.0625 231.808594 270.0625 287.40625 Z M 188.285156 287.40625 " fill-opacity="1" fill-rule="nonzero"/></g></svg>