<svg xmlns="http://www.w3.org/2000/svg" contentScriptType="text/ecmascript" width="16" viewBox="0 0 375 375" height="16" version="1.0"><defs><clipPath id="a"><path d="M55 73h265v291.828H55Zm0 0"/></clipPath><clipPath id="b"><path d="M0 10.078h375V198H0Zm0 0"/></clipPath></defs><g clip-path="url(#a)"><path fill="#FFF" d="M319.152 190.402Zm0 0L187.543 73.875 55.852 190.453v166.574c0 4.301 3.476 7.754 7.78 7.754h82.298v-73.039c0-4.3 3.453-7.777 7.757-7.777h67.622c4.304 0 7.757 3.476 7.757 7.777v73.04h82.325a7.73 7.73 0 0 0 7.754-7.755V190.395Zm-263.3.051Zm0 0"/></g><g clip-path="url(#b)"><path fill="#FFF" d="M186.773 10.105 0 175.438l19.676 22.187L187.539 49.023l167.824 148.602L375 175.437 188.27 10.106l-.727.84-.766-.84Zm0 0"/></g><path fill="#FFF" d="M55.852 33.906h47.347l-.414 28.035-46.933 42.387Zm0 0"/></svg>