<svg xmlns="http://www.w3.org/2000/svg" contentScriptType="text/ecmascript" width="375" height="375" version="1.0"><defs><clipPath id="a"><path d="M29.531 256h315.75v119H29.531Zm0 0"/></clipPath><clipPath id="b"><path d="M29.531 257h315.75v118H29.531Zm0 0"/></clipPath></defs><path fill="#FFF" d="M34.645 370.066c2.593-60.296 52.43-108.554 113.312-108.554h78.898c60.883 0 110.727 48.258 113.313 108.554Zm0 0"/><g clip-path="url(#a)"><path fill="#0D203B" d="M226.855 266.45c56.504 0 103.047 43.429 108.047 98.683H39.91c5-55.254 51.543-98.684 108.047-98.684h78.898m0-9.87h-78.898c-65.36 0-118.352 53.023-118.352 118.421h315.602c0-65.398-52.992-118.422-118.352-118.422Zm0 0"/></g><path fill="#F0F1F0" d="M143.023 264.66v-52.488h88.766v52.488l-44.383 34.977Zm0 0"/><path fill="#0D203B" d="M226.855 217.105v45.168l-39.449 31.094-39.449-31.094v-45.168h78.898m9.864-9.867h-98.625v59.82l49.312 38.864 49.313-38.863Zm0 0"/><path fill="#0D203B" d="m213.059 282.426-25.653 6.77-25.633-6.731 15.77 33.324L157.82 375h59.172l-19.722-59.21Zm0 0"/><path fill="#45291D" d="m189.941 370.066 51.707-72.433v-35.074c54.098 7.097 96.122 52.906 98.52 107.507Zm-155.296 0c2.398-54.601 44.421-100.402 98.52-107.507v35.074l51.706 72.433Zm0 0"/><g clip-path="url(#b)"><path fill="#0D203B" d="M246.582 268.344c47.352 8.781 83.871 48.738 88.309 96.789H199.527l45.22-63.348 1.835-2.574v-30.867m-118.352 0v30.867l1.836 2.574 45.22 63.348H39.921c4.437-48.059 40.957-88.02 88.308-96.79m108.489-11.269v38.977l-49.313 69.082-49.312-69.082v-38.977C77.359 262.105 29.605 312.926 29.605 375h315.602c0-62.074-47.754-112.895-108.488-117.926Zm0 0"/></g><path fill="#FFF" d="M257.855 179.742c-12.824 0-23.238-10.441-23.238-23.258 0-12.82 10.426-23.261 23.238-23.261 19.36 0 23.247 5.308 23.247 13.867 0 13.953-11.493 32.652-23.247 32.652Zm-140.898 0c-11.754 0-23.246-18.699-23.246-32.664 0-8.555 3.898-13.863 23.246-13.863 12.82 0 23.238 10.43 23.238 23.258s-10.418 23.27-23.238 23.27Zm0 0"/><path fill="#0D203B" d="M257.855 138.156c18.313 0 18.313 4.75 18.313 8.934 0 12.176-10.266 27.73-18.313 27.73-10.101 0-18.316-8.222-18.316-18.328 0-10.113 8.215-18.336 18.316-18.336m-140.898 0c10.102 0 18.316 8.223 18.316 18.328 0 10.106-8.214 18.325-18.316 18.325-8.047 0-18.312-15.543-18.312-27.73 0-4.173 0-8.923 18.312-8.923m140.898-9.867c-15.562 0-28.18 12.621-28.18 28.195 0 15.57 12.618 28.192 28.18 28.192 15.563 0 28.176-22.024 28.176-37.598 0-15.562-12.613-18.789-28.176-18.789Zm-140.898 0c-15.562 0-28.176 3.227-28.176 18.8 0 15.571 12.614 37.599 28.176 37.599 15.563 0 28.18-12.622 28.18-28.196 0-15.57-12.617-28.203-28.18-28.203Zm0 0"/><path fill="#F0F1F0" d="M187.406 251.645c-5.957 0-11.558-2.153-16.195-6.22l-.899-.788-1.14-.293c-32.813-8.332-55.734-37.797-55.734-71.645V80.941c0-18.03 14.656-32.695 32.664-32.695h82.597c18.012 0 32.676 14.664 32.676 32.695V172.7c0 33.848-22.922 63.313-55.734 71.645l-1.141.293-.898.789c-4.637 4.066-10.239 6.219-16.196 6.219Zm0 0"/><path fill="#0D203B" d="M228.7 53.18c15.296 0 27.745 12.457 27.745 27.761V172.7c0 31.586-21.394 59.082-52.027 66.867l-2.297.582-1.785 1.57c-2.594 2.278-6.934 4.993-12.93 4.993-5.996 0-10.336-2.715-12.93-4.992l-1.785-1.57-2.296-.583c-30.633-7.785-52.028-35.28-52.028-66.867V80.941c0-15.304 12.45-27.761 27.746-27.761H228.7m0-9.867h-82.597c-20.762 0-37.598 16.843-37.598 37.628V172.7c0 36.875 25.308 67.754 59.465 76.43 5.207 4.578 11.96 7.45 19.437 7.45s14.23-2.872 19.438-7.45c34.156-8.676 59.465-39.555 59.465-76.43V80.941c0-20.785-16.836-37.629-37.61-37.629Zm0 0"/><path fill="#45291D" d="M261.375 162.828V128.29c0-35.883-29.914-55.086-31.195-55.883l-3.926-2.469-2.711 3.782c-.84 1.164-20.898 28.488-64.246 28.488-11.34 0-45.86 0-45.86 35.95v24.671h-1.765c-4.3-9.691-17.961-42.75-17.961-70.933 0-52.016 35.676-86.961 88.766-86.961 37.859 0 49.23 25.511 49.695 26.597l1.293 2.989 3.254.02c16.48 0 44.383 11.468 44.383 54.425 0 25.883-13.88 63.086-18.13 73.863Zm0 0"/><path fill="#0D203B" d="M182.477 9.867c34.351 0 44.753 22.668 45.14 23.54l2.535 6.066h6.567c18.195 0 39.449 12.957 39.449 49.492 0 15.156-5 34.52-9.86 49.765v-10.44c0-38.575-32.132-59.2-33.503-60.071l-7.903-4.961-5.394 7.617c-.188.266-19.14 26.387-60.211 26.387-33.7.011-50.793 13.77-50.793 40.894v3.102c-4.84-14.035-9.86-32.617-9.86-49.371 0-49.059 33.688-82.02 83.833-82.02m0-9.867C125.086 0 88.78 39.285 88.78 91.887c0 34.843 19.723 75.875 19.723 75.875h9.863v-29.606c0-26.328 19.965-31.015 40.93-31.015 46.652 0 68.27-30.563 68.27-30.563s28.878 18.149 28.878 51.711v39.473h9.864s19.722-47.051 19.722-78.797c0-44.578-28.375-59.36-49.312-59.36 0 0-12.36-29.605-54.242-29.605Zm0 0"/></svg>