<svg xmlns="http://www.w3.org/2000/svg" contentScriptType="text/ecmascript" width="375" height="375" viewBox="0 0 375 374.999991" version="1.0"><path fill="#45291D" d="M8.008 187.5c0 99.133 80.36 179.492 179.488 179.492 99.133 0 179.492-80.36 179.492-179.492 0-99.129-80.36-179.488-179.492-179.488C88.367 8.012 8.008 88.372 8.008 187.5"/><path fill="#F3E9C8" d="M49.68 235.398c-5.23-15.007-8.086-31.125-8.086-47.898 0-33.438 11.32-64.273 30.308-88.906-1.84-1.793-3.71-3.606-5.496-5.496-20.363 26.062-32.52 58.84-32.52 94.402 0 18.965 3.466 37.125 9.778 53.902 2.078-1.918 4.04-3.964 6.016-6.004M324.496 237.652c1.074.844 2.024 1.63 2.738 2.145 1.227.898 2.442 1.816 3.66 2.746 6.59-17.094 10.22-35.648 10.22-55.043 0-36.668-12.923-70.371-34.442-96.813a115.567 115.567 0 0 1-4.93 6.188c19.805 24.906 31.66 56.406 31.66 90.625 0 17.621-3.156 34.512-8.906 50.152"/><path fill="#45291D" d="M.57 187.5H.02c.007 103.54 83.94 187.477 187.476 187.477 103.543 0 187.477-83.938 187.477-187.477C374.973 83.96 291.039.027 187.496.027 83.961.027.027 83.961.02 187.5H1.12c0-51.465 20.863-98.055 54.59-131.785 33.73-33.727 80.32-54.59 131.785-54.59 51.469 0 98.059 20.863 131.79 54.59 33.726 33.73 54.585 80.32 54.585 131.785 0 51.469-20.86 98.059-54.586 131.79-33.73 33.722-80.32 54.585-131.789 54.585-51.465 0-98.055-20.863-131.785-54.586C21.984 285.56 1.12 238.97 1.12 187.5h-.55"/><path fill="#F3E9C8" d="M298.758 169.875c-8.461-53.84-55.051-95.008-111.262-95.008-56.21 0-102.793 41.168-111.258 95.008l3.262.512c8.215-52.246 53.438-92.223 107.996-92.219 54.563-.004 99.79 39.973 108 92.219l3.262-.512M104.57 224.64H81.11l.831 2.227c15.965 42.793 57.2 73.27 105.555 73.27 48.36 0 89.598-30.477 105.559-73.27l.836-2.226h-23.168v3.3h20.789v-1.648l-1.551-.582c-15.5 41.539-55.524 71.125-102.465 71.125-46.937 0-86.96-29.586-102.46-71.125l-1.548.582v1.648h21.082v-3.3M97.46 62.64l-1.136 1.055c-.949-1.156-1.73-2.07-2.34-2.726-1.84-1.98-3.535-2.977-5.078-2.996-1.547-.016-2.945.554-4.195 1.718-1.672 1.547-2.777 3.84-3.313 6.864-.539 3.027-.12 6.574 1.254 10.648 1.383 4.07 3.477 7.625 6.293 10.656 2.73 2.938 5.422 4.63 8.078 5.082 2.653.446 4.887-.164 6.7-1.851 2.457-2.281 3.34-5.852 2.648-10.703-.058-.492.02-.844.242-1.051a.906.906 0 0 1 .63-.25c.237.004.429.082.57.234.355.38.578 1.559.675 3.535.098 1.977-.218 3.993-.953 6.047-.734 2.055-1.785 3.723-3.164 5a11.835 11.835 0 0 1-5.816 2.989c-2.223.453-4.47.246-6.743-.625-2.273-.871-4.433-2.407-6.484-4.614-2.855-3.074-4.894-6.882-6.121-11.425-1.223-4.54-1.394-8.762-.52-12.66.876-3.903 2.465-6.922 4.762-9.063a15.494 15.494 0 0 1 2.723-2.016c.43-.242 2.324-1.101 5.687-2.578a36.698 36.698 0 0 0 5.602 8.73M111.262 54.934c-1.387.859-2.11 2.683-2.18 5.464-.059 2.782.988 5.914 3.152 9.403 1.313 2.117 2.754 3.535 4.309 4.258 1.14.535 2.203.5 3.18-.11 1.363-.851 2.086-2.469 2.156-4.863.066-3.086-.91-6.258-2.934-9.516-1.52-2.441-2.933-3.98-4.234-4.61-1.305-.632-2.461-.644-3.45-.026Zm.937-3.121c1.594-.989 3.313-1.18 5.16-.567 1.852.613 3.477 2.05 4.883 4.313 2.246 3.613 2.988 7.648 2.238 12.101-.757 4.45-2.55 7.559-5.382 9.317-1.743 1.082-3.5 1.382-5.274.91-1.773-.477-3.273-1.703-4.5-3.676-2.12-3.418-3.11-7.184-2.957-11.297.223-5.125 2.164-8.824 5.832-11.102"/><path fill="#F3E9C8" d="m124.207 48.004 6.32-2.7c-.847-4.85-1.062-8.636-.64-11.359.422-2.726 1.441-5.164 3.058-7.328 1.618-2.164 3.383-3.648 5.282-4.465 1.078-.457 1.976-.593 2.703-.406.73.192 1.218.578 1.465 1.156.23.535.23 1.051.011 1.559-.222.516-.633.898-1.234 1.156-.613.262-1.86.574-3.727.938-.925.187-1.625.383-2.101.582-1.164.5-1.91 1.668-2.23 3.504-.321 1.836-.239 4.101.241 6.789l1.083 6.199 7.003-2.992.383 2.054-7.101 3.04 3.078 18.636c.902 5.68.512 10.445-1.188 14.297-1.695 3.856-4.203 6.492-7.515 7.906-1.11.477-2.047.618-2.801.434-.758-.188-1.274-.598-1.543-1.23-.234-.547-.223-1.07.035-1.567.258-.496.754-.898 1.492-1.215.371-.16.938-.351 1.7-.574 1.3-.367 2.515-.79 3.644-1.277 1.738-.743 2.836-1.696 3.281-2.852.438-1.16.371-3.504-.199-7.035l-3.855-23.871-6.32 2.703-.325-2.082M143.48 40.773l6.63-1.824c-.184-4.918.117-8.699.902-11.34.781-2.64 2.125-4.925 4.02-6.847 1.894-1.926 3.843-3.164 5.835-3.711 1.13-.313 2.04-.324 2.73-.035.7.289 1.13.73 1.298 1.343.152.555.09 1.067-.204 1.543-.285.48-.742.801-1.37.977-.65.18-1.923.324-3.825.43-.941.058-1.66.156-2.156.296-1.227.332-2.117 1.387-2.684 3.165-.566 1.78-.793 4.03-.68 6.761l.235 6.29 7.348-2.02.097 2.09-7.445 2.047.531 18.882c.133 5.75-.902 10.418-3.105 14.008s-5.04 5.863-8.516 6.82c-1.164.32-2.11.336-2.836.047-.722-.285-1.176-.761-1.36-1.43-.16-.574-.077-1.085.247-1.542.32-.457.871-.793 1.648-1.008.387-.106.973-.215 1.754-.332 1.34-.188 2.602-.45 3.785-.774 1.828-.504 3.04-1.3 3.633-2.39.598-1.086.848-3.418.762-6.989l-.602-24.171-6.625 1.82-.047-2.106M168.992 46.508c2.88-1.766 4.988-3.54 6.32-5.317.907-1.238 1.282-2.402 1.145-3.484-.11-.816-.402-1.441-.898-1.871-.493-.426-1.075-.598-1.762-.508-.703.09-1.356.45-1.945 1.063-.805.824-1.418 1.984-1.836 3.488a28.838 28.838 0 0 0-1.024 6.629Zm10.516 2.836 1.105 1.133c-4.082 5.039-7.785 7.77-11.113 8.199-1.348.176-2.438-.145-3.27-.965-.828-.816-1.378-2.234-1.64-4.25-.528-4.066.18-8.277 2.125-12.629 2.18-4.941 5.2-7.664 9.055-8.172 1.351-.172 2.421.031 3.226.613.8.582 1.277 1.465 1.43 2.641.164 1.238-.11 2.508-.809 3.816-.699 1.313-2.066 2.754-4.101 4.336-1.024.766-3.23 2.204-6.63 4.313-.038 1.047.005 2.035.126 2.969.175 1.347.515 2.265 1.011 2.742.493.476 1.149.66 1.97.555.777-.106 1.605-.434 2.48-.993 1.18-.75 2.855-2.187 5.035-4.308M189.215 45.32c3.11-1.328 5.45-2.773 7.027-4.34 1.074-1.097 1.621-2.19 1.637-3.28.012-.829-.195-1.485-.613-1.981-.426-.496-.98-.75-1.672-.762-.711-.012-1.403.246-2.082.773-.914.696-1.684 1.754-2.325 3.184a29.004 29.004 0 0 0-1.972 6.406Zm9.992 4.336.93 1.278c-4.77 4.39-8.828 6.558-12.184 6.507-1.36-.027-2.39-.504-3.094-1.433-.703-.934-1.039-2.414-1.004-4.446.063-4.101 1.375-8.164 3.934-12.187 2.871-4.574 6.254-6.832 10.14-6.766 1.364.02 2.4.383 3.106 1.07.707.692 1.055 1.633 1.031 2.825-.02 1.242-.472 2.465-1.355 3.656-.879 1.195-2.441 2.426-4.688 3.692-1.12.617-3.515 1.718-7.183 3.308a18.225 18.225 0 0 0-.305 2.953c-.023 1.364.18 2.317.598 2.86.426.539 1.047.82 1.87.832.786.011 1.653-.192 2.599-.617 1.273-.575 3.144-1.754 5.605-3.532M232.813 39.023c1.652.414 2.847 1.051 3.593 1.914.742.864 1.012 1.715.805 2.551-.125.508-.426.899-.895 1.172a1.964 1.964 0 0 1-1.523.219 1.766 1.766 0 0 1-.86-.465c-.222-.227-.5-.71-.824-1.46-.609-1.438-1.363-2.27-2.257-2.485-.762-.192-1.508-.063-2.239.375-.73.441-1.203 1.097-1.422 1.968a4.92 4.92 0 0 0 .008 2.36c.192.805.848 2.191 1.961 4.164 1.52 2.707 2.035 5.043 1.55 7.012-.487 1.972-1.753 3.488-3.788 4.55-2.043 1.059-4.387 1.266-7.027.614-2.211-.551-3.747-1.41-4.606-2.578-.851-1.168-1.117-2.414-.789-3.735.164-.652.5-1.144 1.012-1.469a2.062 2.062 0 0 1 1.668-.265c.52.125.925.41 1.21.844.286.437.372.89.262 1.351-.05.188-.125.43-.218.719a8.987 8.987 0 0 0-.172.61c-.153.613-.02 1.199.394 1.753.395.555 1.024.938 1.899 1.156.996.247 1.922.29 2.765.133a4.02 4.02 0 0 0 2.168-1.117c.598-.59.98-1.23 1.153-1.922.168-.664.132-1.383-.102-2.152-.234-.77-.86-2.098-1.875-3.985-1.398-2.636-1.851-4.945-1.363-6.933.453-1.824 1.582-3.238 3.39-4.234 1.809-1.004 3.848-1.227 6.121-.665M255.129 67.492l.266 1.274c-2.387 1.105-4.66 1.82-6.82 2.148-1.477.227-2.59.176-3.352-.148-.614-.262-1.004-.723-1.172-1.375-.168-.657-.031-1.504.414-2.543.3-.707.883-1.672 1.75-2.899.867-1.222 2.93-3.765 6.183-7.629 1.532-1.933 2.375-3.078 2.536-3.453.238-.562.058-.972-.54-1.226-.742-.317-1.828-.344-3.257-.082-1.989.351-3.926 1.066-5.801 2.136-1.195.684-2.45 1.926-3.754 3.72l-6.031 8.343-3.942-1.684c2.164-2.719 3.891-4.957 5.188-6.715l11.125-15.297c2.043-2.835 4.004-4.847 5.879-6.046 1.879-1.2 3.96-1.907 6.254-2.121 2.285-.215 4.34.066 6.156.843.762.325 1.277.766 1.559 1.328.277.563.296 1.133.05 1.707-.203.48-.601.813-1.191.993-.586.183-1.25.117-1.996-.2-.422-.183-.95-.46-1.582-.843-1.418-.871-2.422-1.43-3-1.68-.817-.344-1.617-.3-2.41.137-.79.433-1.977 1.75-3.563 3.941l-8.52 11.793c3.036-1.3 6.114-2.184 9.235-2.64 1.828-.278 3.184-.235 4.066.144.688.297 1.137.727 1.356 1.297.21.57.168 1.219-.14 1.941a8.467 8.467 0 0 1-.981 1.707c-.676.946-2.02 2.602-4.035 4.969-2.762 3.285-4.442 5.34-5.032 6.168-.597.828-1.047 1.605-1.355 2.328-.125.285-.164.516-.129.7.039.179.152.312.348.398.422.18 1.433.015 3.02-.492.89-.27 1.96-.586 3.218-.942M275.422 62.395c-1.363-.895-3.32-.786-5.871.324-2.551 1.113-4.953 3.386-7.203 6.816-1.368 2.082-2.051 3.985-2.055 5.7 0 1.261.48 2.206 1.441 2.835 1.348.883 3.118.856 5.317-.086 2.828-1.242 5.293-3.464 7.398-6.668 1.574-2.406 2.375-4.332 2.403-5.785.023-1.453-.454-2.496-1.43-3.136Zm3.223-.465c1.574 1.03 2.468 2.511 2.69 4.445.22 1.934-.401 4.012-1.858 6.242-2.336 3.559-5.684 5.934-10.036 7.125-4.355 1.188-7.93.867-10.718-.96-1.711-1.126-2.727-2.598-3.04-4.407-.316-1.809.165-3.684 1.438-5.621 2.207-3.367 5.207-5.848 9-7.442 4.746-1.953 8.922-1.75 12.524.618M278.383 88.652c.062 2.141.668 3.754 1.824 4.848 1.672 1.574 4.367 1.652 8.082.238 3.723-1.422 6.754-3.37 9.098-5.855.75-.793 1.14-1.563 1.175-2.309.032-.746-.25-1.398-.847-1.969-.668-.628-1.727-1.007-3.18-1.14-2.254-.2-4.195-.125-5.824.234-1.172.266-2.816 1.09-4.93 2.469Zm5.082-13.867-.031-1.61c2.703-.32 5.027-.253 6.964.208 1.938.46 3.368 1.12 4.29 1.992.347.328.542.672.578 1.04.039.366-.102.714-.414 1.05a8.54 8.54 0 0 1-1.313 1.113c-.492.344-1.723 1.082-3.7 2.223 4.145-.117 6.849-.063 8.102.172 2.11.386 3.711 1.093 4.801 2.12.707.669.992 1.571.848 2.7-.145 1.129-.852 2.371-2.13 3.727-3.183 3.37-7.26 5.585-12.233 6.636-4.97 1.055-8.73.383-11.278-2.023-1.004-.945-1.75-2.168-2.242-3.656l-8.297 5.214c-.508.313-.887.602-1.133.868-.488.515-.644 1.066-.464 1.66.269.914 1.261 2.39 2.972 4.43l-1.254.785c-2.074-2.293-3.75-4.047-5.035-5.262-1.324-1.246-3.125-2.777-5.398-4.578l1.257-.79c1.165.887 2.211 1.317 3.141 1.298.93-.016 2.11-.497 3.547-1.434l18.766-12.297c3.5-2.289 5.406-3.594 5.722-3.933.34-.36.336-.708-.008-1.036-.617-.578-2.632-.785-6.058-.617M60.188 248.09l1.746 3.129 9.379-5.23 6.972 12.503-3.129 1.742-5.222-9.375-6.258 3.485 3.484 6.254-3.125 1.738-3.484-6.25-12.512 6.969-1.742-3.125 12.508-6.97-.871-1.562 2.254-3.308M79.586 272.29c1.59-1.157 1.973-3.427.816-5.02l-2.062-2.836-5.793 4.21 2.105 2.895c1.137 1.566 3.34 1.91 4.934.75Zm-11.246-9.435 2.101 2.895 8.688-6.316 4.18 5.812c2.265 3.176 1.535 7.645-1.621 9.942-3.067 2.23-7.305 1.636-9.7-1.227L64.496 288l-2.336-3.215 7.469-14.015-11.55 8.402-2.11-2.895 11.582-8.422-1.055-1.445 1.844-3.555M78.89 277.363l2.45 2.606 7.824-7.36 9.805 10.43-2.602 2.453-7.36-7.82-5.214 4.906 4.902 5.215-2.605 2.453-4.903-5.21-7.824 7.355 7.356 7.824-2.61 2.453-9.804-10.43 10.43-9.812-1.227-1.305 1.383-3.758M84.008 302.996l2.93 2.469c1.972 1.664 4.773-.324 5.363-2.969l.875-8.914c.11-2.574.922-4.652 2.91-6.113a6.913 6.913 0 0 1 8.633.21l2.676 2.262-2.31 2.739-2.32-1.918c-1.335-1.078-3.171-1.457-4.628-.344-.735.598-1.203 1.371-1.383 2.203l-1.238 11.23c-.606 5.16-6.918 7.7-10.75 4.465l-3.067-2.582 2.309-2.738"/><path fill="#F3E9C8" d="m110.07 309.375-5.89-4.07-8.137 11.785-2.945-2.031 8.136-11.786-1.472-1.02.558-3.964 2.95 2.04 6.101-8.84 2.945 2.034-6.105 8.836 5.89 4.07 6.106-8.84 2.945 2.036-16.277 23.57-2.945-2.035 8.14-11.785M133.469 317.469l6.636 2.664 1.336-3.32a3.59 3.59 0 0 0-1.988-4.657c-1.824-.734-3.918.16-4.656 1.989Zm-6.649-2.672 3.325 1.336 1.332-3.324c1.468-3.649 5.656-5.442 9.312-3.977 3.652 1.473 5.441 5.66 3.977 9.313l-8.004 19.93-3.325-1.333 5.336-13.289-6.64-2.664-5.332 13.281-3.324-1.328 5.332-13.285-1.594-.64-.395-4.02M156.402 328.027l-5.484-7.66-5.004 20.266-3.476-.86 6.87-27.804 8.22 11.5 2.206-8.93 3.473.86-6.867 27.8-3.477-.855 3.54-14.317M168.23 319.836l-2.12 21.336 1.066.105a10.731 10.731 0 0 0 11.754-9.62c.586-5.915-3.711-11.165-9.621-11.75Zm-3.203-3.953 4.633.46c7.871.782 13.613 7.794 12.828 15.669-.781 7.867-7.789 13.613-15.664 12.828l-4.629-.461 2.832-28.496M198.836 320.73l2.73 21.274 1.063-.14a10.72 10.72 0 0 0 9.281-12.02 10.712 10.712 0 0 0-12.012-9.281Zm-4.012-3.128 4.613-.594c7.848-1.004 15.016 4.535 16.024 12.383 1.008 7.847-4.527 15.02-12.375 16.027l-4.613.59-3.649-28.406M215.738 325.664l3.453-.934-2.804-10.367 13.82-3.738.938 3.453-10.372 2.809 1.875 6.906 6.91-1.871.93 3.453-6.906 1.875 2.809 10.363 10.363-2.804.934 3.453-13.817 3.742-3.742-13.817-1.727.465-2.664-2.988M231.977 309.863l3.293-1.406 9.859 23.035 9.875-4.226 1.41 3.293-13.164 5.632-11.273-26.328M246.594 303.29l3.16-1.677 13.402 25.317-3.164 1.675-13.398-25.316M276.965 314.242c.715-.465 1.367-.98 1.941-1.61l1.996 3.063a14.653 14.653 0 0 1-1.984 1.547c-6.629 4.32-15.496 2.45-19.813-4.176-4.32-6.632-2.453-15.496 4.176-19.816.719-.469 1.446-.86 2.215-1.188l1.996 3.06c-.789.3-1.535.655-2.254 1.124a10.73 10.73 0 0 0-3.136 14.863 10.724 10.724 0 0 0 14.863 3.133M266.508 290.703l2.808-2.219 17.743 22.477-2.809 2.219-17.742-22.477M298.64 295.543a10.723 10.723 0 0 0-.21-15.188 10.732 10.732 0 0 0-15.192.211 10.732 10.732 0 0 0 .219 15.192 10.726 10.726 0 0 0 15.184-.215Zm-17.968-17.469c5.515-5.672 14.578-5.804 20.25-.293 5.672 5.52 5.805 14.582.289 20.254-5.516 5.672-14.574 5.805-20.25.285-5.676-5.511-5.805-14.574-.29-20.246M290.621 266.898l2.024-2.949 17.707 12.156a3.592 3.592 0 0 0 4.976-.921 3.594 3.594 0 0 0-.926-4.98L296.7 258.046l2.024-2.953 17.707 12.16c3.246 2.23 4.078 6.707 1.847 9.953-2.226 3.246-6.707 4.078-9.953 1.848l-17.703-12.157M321.938 264.832l1.808-3.375c1.219-2.27-1.312-4.602-4.016-4.633l-8.898 1c-2.539.422-4.742.055-6.586-1.582a6.918 6.918 0 0 1-1.582-8.488l1.656-3.09 3.153 1.691-1.387 2.668c-.781 1.532-.77 3.407.621 4.598a3.917 3.917 0 0 0 2.438.902l11.246-1.12c5.171-.477 8.96 5.171 6.593 9.59l-1.89 3.53-3.156-1.691"/><path fill="#FDE5C5" d="M240.43 99.344a4.41 4.41 0 0 0-5.278-3.336l-30.101 6.808c-8.512 1.926-16.145 10.2-17.371 18.832l-3.184 22.364h8.918l3.004-21.117c.715-4.997 5.656-10.352 10.578-11.465l30.102-6.809a4.406 4.406 0 0 0 3.332-5.277M143.555 182.672l4.117 50.098h73.133l3.593-50.098h-80.843M212.504 279.098h-57.305v-6.067h57.305v6.067M224.398 159.063a2.76 2.76 0 0 1-2.757 2.761h-77.067a2.76 2.76 0 0 1 0-5.52h77.067a2.757 2.757 0 0 1 2.757 2.758"/><path fill="#FDE5C5" d="M221.508 156.305c-.238-5.04-1.274-8.832-2.512-8.832h-71.543c-1.238 0-2.27 3.793-2.508 8.832h76.563M145.207 163.277l1.363 17.461h74.766l1.191-17.46h-77.32M150.781 234.703l2.992 38.328h61.262l2.613-38.328h-66.867"/></svg>