<?xml version="1.0" encoding="UTF-8"?><svg xmlns="http://www.w3.org/2000/svg" xmlns:xlink="http://www.w3.org/1999/xlink" contentScriptType="text/ecmascript" width="375" zoomAndPan="magnify" contentStyleType="text/css" viewBox="0 0 375 374.999991" height="374.999991" preserveAspectRatio="xMidYMid meet" version="1.0"><path fill="rgb(100%, 100%, 100%)" d="M 321.765625 315.300781 L 239.433594 315.300781 C 238.421875 315.210938 237.417969 315.074219 236.417969 314.886719 C 235.421875 314.703125 234.433594 314.476562 233.453125 314.199219 C 232.476562 313.925781 231.515625 313.605469 230.566406 313.238281 C 229.617188 312.875 228.6875 312.46875 227.777344 312.015625 C 226.867188 311.566406 225.980469 311.074219 225.117188 310.542969 C 224.25 310.011719 223.414062 309.441406 222.601562 308.828125 C 221.789062 308.21875 221.007812 307.574219 220.253906 306.890625 C 219.5 306.210938 218.78125 305.492188 218.097656 304.746094 C 217.410156 303.996094 216.757812 303.21875 216.144531 302.410156 C 215.53125 301.601562 214.957031 300.765625 214.417969 299.902344 C 213.882812 299.039062 213.386719 298.15625 212.929688 297.246094 C 212.476562 296.339844 212.0625 295.414062 211.691406 294.464844 C 211.324219 293.519531 211 292.558594 210.71875 291.582031 C 210.4375 290.605469 210.203125 289.621094 210.011719 288.621094 C 209.824219 287.625 209.679688 286.621094 209.582031 285.609375 C 209.488281 284.597656 209.4375 283.585938 209.433594 282.570312 L 209.433594 238.039062 L 235.175781 238.039062 C 235.734375 238.027344 236.289062 237.960938 236.832031 237.839844 C 237.378906 237.71875 237.910156 237.550781 238.421875 237.328125 C 238.9375 237.109375 239.425781 236.84375 239.886719 236.527344 C 240.351562 236.214844 240.78125 235.859375 241.175781 235.464844 C 241.570312 235.070312 241.925781 234.640625 242.238281 234.179688 C 242.550781 233.714844 242.820312 233.226562 243.039062 232.714844 C 243.261719 232.199219 243.429688 231.667969 243.550781 231.125 C 243.667969 230.578125 243.734375 230.023438 243.75 229.464844 C 243.789062 228.730469 243.722656 228.007812 243.554688 227.292969 C 243.382812 226.578125 243.117188 225.902344 242.757812 225.261719 C 242.394531 224.621094 241.949219 224.046875 241.421875 223.535156 C 240.898438 223.023438 240.308594 222.59375 239.660156 222.25 L 178.738281 161.625 C 178.371094 161.210938 177.964844 160.839844 177.519531 160.511719 C 177.070312 160.183594 176.597656 159.902344 176.089844 159.675781 C 175.585938 159.449219 175.0625 159.277344 174.519531 159.160156 C 173.980469 159.042969 173.429688 158.984375 172.875 158.984375 C 172.324219 158.984375 171.773438 159.042969 171.234375 159.160156 C 170.691406 159.277344 170.167969 159.449219 169.664062 159.675781 C 169.15625 159.902344 168.683594 160.183594 168.234375 160.511719 C 167.789062 160.839844 167.382812 161.210938 167.015625 161.625 L 105.132812 223.304688 C 104.527344 223.863281 104.019531 224.5 103.609375 225.210938 C 103.199219 225.921875 102.902344 226.679688 102.71875 227.480469 C 102.535156 228.28125 102.472656 229.09375 102.535156 229.914062 C 102.597656 230.734375 102.777344 231.527344 103.078125 232.292969 C 103.371094 233.113281 103.777344 233.871094 104.292969 234.574219 C 104.8125 235.273438 105.421875 235.882812 106.121094 236.398438 C 106.820312 236.917969 107.582031 237.324219 108.402344 237.617188 C 109.222656 237.90625 110.066406 238.074219 110.9375 238.117188 L 129.78125 238.117188 L 129.78125 282.644531 C 129.796875 285.652344 130.089844 288.632812 130.660156 291.585938 C 131.226562 294.535156 132.0625 297.414062 133.164062 300.210938 C 134.261719 303.007812 135.609375 305.683594 137.207031 308.234375 C 138.800781 310.78125 140.617188 313.164062 142.652344 315.375 L 84.234375 315.375 C 82.828125 315.335938 81.425781 315.261719 80.023438 315.152344 C 78.621094 315.042969 77.222656 314.902344 75.828125 314.726562 C 74.433594 314.550781 73.046875 314.339844 71.660156 314.097656 C 70.277344 313.851562 68.898438 313.578125 67.527344 313.265625 C 66.15625 312.957031 64.792969 312.613281 63.441406 312.238281 C 62.085938 311.859375 60.742188 311.453125 59.40625 311.011719 C 58.070312 310.570312 56.75 310.097656 55.4375 309.59375 C 54.125 309.085938 52.828125 308.550781 51.539062 307.984375 C 50.253906 307.414062 48.984375 306.816406 47.726562 306.1875 C 46.46875 305.558594 45.230469 304.898438 44.003906 304.210938 C 42.777344 303.519531 41.570312 302.800781 40.378906 302.054688 C 39.191406 301.304688 38.019531 300.53125 36.867188 299.726562 C 35.714844 298.921875 34.582031 298.089844 33.46875 297.230469 C 32.355469 296.371094 31.265625 295.484375 30.195312 294.574219 C 29.125 293.660156 28.078125 292.722656 27.054688 291.761719 C 26.03125 290.796875 25.03125 289.8125 24.054688 288.800781 C 23.078125 287.789062 22.125 286.753906 21.199219 285.699219 C 20.273438 284.640625 19.371094 283.5625 18.5 282.460938 C 17.625 281.359375 16.777344 280.238281 15.957031 279.097656 C 15.136719 277.957031 14.34375 276.796875 13.582031 275.613281 C 12.816406 274.433594 12.082031 273.238281 11.375 272.023438 C 10.671875 270.804688 9.992188 269.574219 9.347656 268.328125 C 8.699219 267.078125 8.085938 265.816406 7.5 264.535156 C 6.914062 263.257812 6.359375 261.96875 5.835938 260.664062 C 5.316406 259.359375 4.824219 258.042969 4.363281 256.710938 C 3.90625 255.382812 3.480469 254.046875 3.085938 252.695312 C 2.691406 251.347656 2.328125 249.988281 2 248.621094 C 1.671875 247.253906 1.375 245.882812 1.113281 244.5 C 0.851562 243.121094 0.625 241.734375 0.429688 240.339844 C 0.234375 238.949219 0.0703125 237.554688 -0.0546875 236.152344 C -0.183594 234.753906 -0.277344 233.351562 -0.335938 231.949219 C -0.398438 230.542969 -0.421875 229.136719 -0.414062 227.730469 C -0.40625 226.359375 -0.367188 224.988281 -0.292969 223.617188 C -0.222656 222.246094 -0.117188 220.875 0.0195312 219.511719 C 0.15625 218.144531 0.320312 216.78125 0.519531 215.421875 C 0.71875 214.066406 0.949219 212.710938 1.210938 211.363281 C 1.472656 210.015625 1.765625 208.675781 2.089844 207.339844 C 2.414062 206.007812 2.769531 204.679688 3.152344 203.363281 C 3.539062 202.046875 3.953125 200.738281 4.402344 199.4375 C 4.847656 198.140625 5.324219 196.851562 5.828125 195.578125 C 6.335938 194.300781 6.871094 193.035156 7.433594 191.785156 C 8 190.53125 8.589844 189.292969 9.214844 188.070312 C 9.835938 186.847656 10.484375 185.636719 11.164062 184.445312 C 11.839844 183.25 12.546875 182.070312 13.277344 180.910156 C 14.011719 179.75 14.769531 178.605469 15.554688 177.480469 C 16.339844 176.355469 17.152344 175.246094 17.988281 174.15625 C 18.824219 173.070312 19.6875 172 20.574219 170.953125 C 21.460938 169.902344 22.371094 168.875 23.304688 167.871094 C 24.238281 166.863281 25.195312 165.878906 26.175781 164.917969 C 27.15625 163.957031 28.15625 163.015625 29.179688 162.101562 C 30.203125 161.1875 31.246094 160.296875 32.3125 159.429688 C 33.375 158.5625 34.460938 157.71875 35.5625 156.902344 C 36.667969 156.085938 37.789062 155.296875 38.929688 154.53125 C 40.070312 153.765625 41.226562 153.027344 42.402344 152.316406 C 43.574219 151.605469 44.765625 150.921875 45.972656 150.265625 C 47.179688 149.609375 48.398438 148.984375 49.632812 148.382812 C 50.871094 147.785156 52.117188 147.214844 53.378906 146.671875 C 54.640625 146.132812 55.914062 145.621094 57.199219 145.136719 C 58.484375 144.65625 59.78125 144.203125 61.089844 143.78125 C 62.394531 143.359375 63.710938 142.96875 65.035156 142.605469 C 66.359375 142.246094 67.691406 141.914062 69.03125 141.617188 C 70.371094 141.316406 71.71875 141.046875 73.070312 140.8125 C 74.421875 140.574219 75.78125 140.367188 77.140625 140.195312 C 78.503906 140.019531 79.867188 139.878906 81.238281 139.765625 C 82.117188 139.734375 82.96875 139.5625 83.792969 139.253906 C 84.617188 138.941406 85.367188 138.507812 86.046875 137.949219 C 86.730469 137.390625 87.304688 136.738281 87.769531 135.992188 C 88.238281 135.246094 88.570312 134.441406 88.773438 133.585938 C 89.46875 130.929688 90.273438 128.304688 91.1875 125.714844 C 92.097656 123.125 93.113281 120.578125 94.238281 118.070312 C 95.359375 115.566406 96.585938 113.109375 97.910156 110.703125 C 99.238281 108.300781 100.660156 105.953125 102.179688 103.664062 C 103.699219 101.378906 105.308594 99.15625 107.015625 97.003906 C 108.71875 94.851562 110.507812 92.769531 112.382812 90.761719 C 114.257812 88.757812 116.210938 86.832031 118.246094 84.988281 C 120.28125 83.144531 122.390625 81.386719 124.570312 79.714844 C 126.75 78.046875 128.996094 76.46875 131.304688 74.984375 C 133.617188 73.5 135.984375 72.113281 138.40625 70.824219 C 140.832031 69.535156 143.308594 68.347656 145.832031 67.265625 C 148.355469 66.179688 150.917969 65.203125 153.519531 64.332031 C 156.125 63.457031 158.761719 62.695312 161.429688 62.042969 C 164.09375 61.386719 166.785156 60.84375 169.496094 60.414062 C 172.207031 59.980469 174.933594 59.660156 177.671875 59.453125 C 180.410156 59.25 183.152344 59.15625 185.898438 59.175781 C 188.644531 59.195312 191.386719 59.328125 194.121094 59.578125 C 196.855469 59.824219 199.578125 60.183594 202.28125 60.65625 C 204.988281 61.128906 207.667969 61.710938 210.324219 62.402344 C 212.984375 63.097656 215.605469 63.898438 218.199219 64.808594 C 220.789062 65.722656 223.335938 66.738281 225.84375 67.859375 C 228.351562 68.980469 230.808594 70.203125 233.214844 71.527344 C 235.617188 72.851562 237.964844 74.273438 240.253906 75.792969 C 242.542969 77.308594 244.761719 78.921875 246.917969 80.625 C 249.074219 82.324219 251.152344 84.113281 253.160156 85.988281 C 255.167969 87.863281 257.09375 89.816406 258.941406 91.851562 C 260.785156 93.882812 262.542969 95.992188 264.214844 98.167969 C 265.886719 100.347656 267.464844 102.59375 268.949219 104.902344 C 270.4375 107.210938 271.824219 109.578125 273.113281 112.003906 C 274.40625 114.429688 275.59375 116.902344 276.675781 119.425781 C 277.761719 121.945312 278.742188 124.507812 279.617188 127.113281 C 280.488281 129.71875 281.253906 132.351562 281.910156 135.019531 C 282.046875 135.78125 282.296875 136.507812 282.65625 137.195312 C 283.015625 137.882812 283.472656 138.5 284.023438 139.046875 C 284.574219 139.59375 285.195312 140.042969 285.886719 140.398438 C 286.578125 140.753906 287.304688 140.996094 288.070312 141.125 C 289.582031 141.476562 291.074219 141.890625 292.546875 142.367188 C 294.023438 142.84375 295.476562 143.378906 296.90625 143.976562 C 298.335938 144.574219 299.738281 145.234375 301.113281 145.949219 C 302.488281 146.664062 303.828125 147.433594 305.140625 148.261719 C 306.449219 149.089844 307.722656 149.972656 308.960938 150.90625 C 310.195312 151.839844 311.390625 152.824219 312.542969 153.859375 C 313.699219 154.894531 314.808594 155.976562 315.871094 157.105469 C 316.933594 158.230469 317.949219 159.402344 318.914062 160.613281 C 319.878906 161.824219 320.792969 163.078125 321.652344 164.367188 C 322.511719 165.65625 323.320312 166.976562 324.070312 168.332031 C 324.820312 169.691406 325.511719 171.074219 326.144531 172.488281 C 326.777344 173.902344 327.351562 175.34375 327.863281 176.804688 C 328.378906 178.265625 328.828125 179.75 329.21875 181.25 C 329.609375 182.75 329.933594 184.261719 330.195312 185.789062 C 330.460938 187.316406 330.65625 188.851562 330.792969 190.398438 C 330.925781 191.941406 330.996094 193.488281 331 195.039062 C 330.980469 199.996094 330.164062 204.820312 328.550781 209.511719 C 328.339844 210.585938 328.3125 211.664062 328.464844 212.75 C 328.617188 213.835938 328.9375 214.863281 329.433594 215.839844 C 329.976562 216.910156 330.703125 217.828125 331.625 218.59375 C 332.546875 219.363281 333.582031 219.914062 334.730469 220.25 C 336.136719 220.628906 337.523438 221.070312 338.890625 221.574219 C 340.253906 222.074219 341.597656 222.640625 342.910156 223.261719 C 344.226562 223.886719 345.511719 224.570312 346.765625 225.308594 C 348.019531 226.050781 349.238281 226.84375 350.421875 227.695312 C 351.601562 228.542969 352.742188 229.445312 353.84375 230.398438 C 354.945312 231.351562 356 232.351562 357.011719 233.402344 C 358.023438 234.449219 358.984375 235.542969 359.894531 236.675781 C 360.804688 237.8125 361.664062 238.988281 362.472656 240.199219 C 363.277344 241.410156 364.027344 242.660156 364.71875 243.9375 C 365.414062 245.21875 366.046875 246.527344 366.621094 247.867188 C 367.195312 249.203125 367.710938 250.566406 368.160156 251.949219 C 368.613281 253.332031 369.003906 254.734375 369.328125 256.152344 C 369.652344 257.574219 369.914062 259.003906 370.109375 260.445312 C 370.308594 261.890625 370.4375 263.339844 370.503906 264.792969 C 370.570312 266.246094 370.570312 267.703125 370.503906 269.15625 C 370.4375 270.613281 370.304688 272.058594 370.109375 273.503906 C 369.914062 274.945312 369.652344 276.375 369.324219 277.796875 C 369 279.214844 368.609375 280.617188 368.15625 282 C 367.703125 283.382812 367.191406 284.746094 366.617188 286.082031 C 366.039062 287.421875 365.40625 288.730469 364.710938 290.007812 C 364.019531 291.289062 363.269531 292.535156 362.460938 293.75 C 361.65625 294.960938 360.796875 296.136719 359.886719 297.269531 C 358.972656 298.40625 358.011719 299.496094 357 300.542969 C 355.992188 301.59375 354.933594 302.59375 353.832031 303.546875 C 352.734375 304.5 351.589844 305.398438 350.410156 306.25 C 349.226562 307.097656 348.007812 307.894531 346.753906 308.632812 C 345.5 309.375 344.214844 310.054688 342.898438 310.679688 C 341.582031 311.300781 340.242188 311.867188 338.875 312.367188 C 337.507812 312.871094 336.121094 313.3125 334.714844 313.6875 C 333.308594 314.066406 331.890625 314.378906 330.453125 314.628906 C 329.019531 314.878906 327.578125 315.0625 326.125 315.179688 C 324.675781 315.296875 323.222656 315.351562 321.765625 315.339844 Z M 321.765625 315.300781 " fill-opacity="1" fill-rule="nonzero"/></svg>